<svg width="50" height="50" viewBox="0 0 50 50" fill="none" xmlns="http://www.w3.org/2000/svg">
<path d="M50 44.4444C50 45.9179 49.4147 47.3309 48.3728 48.3728C47.3309 49.4147 45.9179 50 44.4444 50H5.55556C4.08213 50 2.66905 49.4147 1.62718 48.3728C0.585316 47.3309 0 45.9179 0 44.4444V5.55556C0 4.08213 0.585316 2.66905 1.62718 1.62718C2.66905 0.585316 4.08213 0 5.55556 0L44.4444 0C45.9179 0 47.3309 0.585316 48.3728 1.62718C49.4147 2.66905 50 4.08213 50 5.55556V44.4444Z" fill="#49B4BB"/>
<path d="M25 9.72222C26.9177 9.72222 28.4722 8.16765 28.4722 6.24999C28.4722 4.33234 26.9177 2.77777 25 2.77777C23.0824 2.77777 21.5278 4.33234 21.5278 6.24999C21.5278 8.16765 23.0824 9.72222 25 9.72222Z" fill="white"/>
<path d="M24.2667 25.375C28.5903 25.0736 37.5903 24.4472 37.5903 20.3778C37.5903 16.2208 28.7833 15.9125 25.0222 15.7806L24.5986 15.7653C10.2736 15.1611 12.7333 11.7333 14.0861 11.7333C14.4667 12.075 15.7375 13.0528 17.85 13.0528C18.575 13.0528 19.332 12.9361 20.1 12.7042C20.1638 12.6868 20.2206 12.6501 20.2626 12.5991C20.3047 12.5481 20.3299 12.4853 20.3347 12.4194C20.336 12.3535 20.3168 12.2889 20.2797 12.2344C20.2426 12.1799 20.1895 12.1383 20.1278 12.1153L18.0986 11.3139L21.2542 10.6903C21.3073 10.6807 21.3573 10.6584 21.3998 10.6253C21.4424 10.5921 21.4763 10.5491 21.4986 10.5C21.519 10.4521 21.5265 10.3998 21.5204 10.3482C21.5143 10.2965 21.4948 10.2474 21.4639 10.2056C21.3917 10.1111 19.7014 7.70139 16.8042 7.70139C12.8472 7.70139 9.66389 9.76111 9.66389 13.3111C9.66389 17.6028 19.8333 18.8069 24.3819 18.8069C33.0931 18.8069 33.5347 19.9722 33.5347 20.2056C33.5347 21.4347 30.4417 22.175 24.3403 22.4069C17.8236 22.6542 13.6125 24.4917 13.6125 27.0889C13.6125 29.5361 16.7681 30.993 24.1653 31.9611C27.5319 32.4014 31.5458 33.1417 31.5458 34.1653C31.5444 34.1778 31.1917 35.5306 24.2806 36.3944C17.8236 37.2042 16.9944 38.7236 16.9944 39.9555C16.9944 41.6236 19.3514 42.7639 24.4125 43.5417C28.2722 44.1347 29.3542 45.5097 29.8736 46.1708C30.0931 46.4486 30.2667 46.6694 30.5667 46.6694C30.5944 46.6694 30.6639 46.6611 30.6903 46.6555C30.9778 46.5889 31.1361 46.2833 31.1153 45.8361C31.1014 45.5042 30.7972 42.5625 24.8361 41.6625C21.1181 41.1014 20.8306 40.2069 20.8306 39.9458C20.8306 39.8153 20.9972 39.1403 24.2403 38.6861C24.6903 38.6528 35.2958 37.8167 35.2958 34.075C35.2958 30.9972 29.0986 29.8764 23.6319 28.8903C20.8764 28.3917 17.4472 27.7722 17.4472 27.1222C17.4486 26.5417 18.6306 25.7667 24.2667 25.375Z" fill="white"/>
<path d="M17.093 10.1972C17.676 10.1972 18.1486 9.92238 18.1486 9.58334C18.1486 9.2443 17.676 8.96945 17.093 8.96945C16.5101 8.96945 16.0375 9.2443 16.0375 9.58334C16.0375 9.92238 16.5101 10.1972 17.093 10.1972Z" fill="#49B4BB"/>
<path d="M22.2222 34.175H23.6111V39.5528H22.2222V34.175ZM26.3889 34.175H27.7778V39.5528H26.3889V34.175ZM22.2222 20.9375H23.6111V26.3153H22.2222V20.9375ZM26.3889 20.9375H27.7778V26.3153H26.3889V20.9375Z" fill="#49B4BB"/>
<path d="M23.6111 27.5139L26.3889 28.0403V16.1778L23.6111 16.0611V27.5139ZM26.3889 30.2625L23.6111 29.75V40.1069C24.3583 40.1972 25.6083 40.4917 26.3889 40.6875V30.2625ZM23.6111 42.1319V45.8333C23.6111 46.2017 23.7574 46.555 24.0179 46.8154C24.2784 47.0759 24.6316 47.2222 25 47.2222C25.3683 47.2222 25.7216 47.0759 25.9821 46.8154C26.2426 46.555 26.3889 46.2017 26.3889 45.8333V42.6986C25.1833 42.4222 24.4139 42.3125 23.6111 42.1319ZM26.3889 14.4972V7.40279C26.3889 7.03443 26.2426 6.68116 25.9821 6.4207C25.7216 6.16023 25.3683 6.0139 25 6.0139C24.6316 6.0139 24.2784 6.16023 24.0179 6.4207C23.7574 6.68116 23.6111 7.03443 23.6111 7.40279V14.3695L26.3889 14.4972Z" fill="white"/>
</svg>
